<svg id="tire" xmlns="http://www.w3.org/2000/svg" width="512" height="512" viewBox="0 0 512 512">
  <g id="Group_11" data-name="Group 11">
    <g id="Group_10" data-name="Group 10">
      <path id="Path_2" data-name="Path 2" d="M256,85.333C161.9,85.333,85.333,161.9,85.333,256S161.9,426.667,256,426.667,426.667,350.1,426.667,256,350.1,85.333,256,85.333Zm87.313,63.75a10.674,10.674,0,0,1,15.25-.6,148.528,148.528,0,0,1,43.458,77.115,10.681,10.681,0,0,1-5.542,11.708,76.827,76.827,0,0,1-34.708,8.01c-15.479,0-30.146-4.438-38.646-12.938C305.042,214.3,312.583,183.167,343.313,149.083Zm-174.625,215.5a10.654,10.654,0,0,1-7.5,3.521c-.125.01-.271.01-.417.01a10.659,10.659,0,0,1-7.333-2.917,148.517,148.517,0,0,1-43.458-77.125,10.681,10.681,0,0,1,5.542-11.708c24.042-12.406,58.333-10.094,73.354,4.927C206.938,299.365,199.4,330.5,168.688,364.583Zm20.187-132.208c-8.5,8.5-23.167,12.938-38.646,12.938a76.9,76.9,0,0,1-34.708-8.01,10.681,10.681,0,0,1-5.542-11.708,148.535,148.535,0,0,1,43.458-77.115,10.276,10.276,0,0,1,7.75-2.906,10.643,10.643,0,0,1,7.5,3.51C199.417,183.167,206.958,214.3,188.875,232.375ZM301.458,398.24a149.193,149.193,0,0,1-90.916,0,10.7,10.7,0,0,1-7.417-10.906C205.792,348.948,228.521,320,256,320s50.208,28.948,52.875,67.333A10.7,10.7,0,0,1,301.458,398.24ZM213.333,256A42.667,42.667,0,1,1,256,298.667,42.716,42.716,0,0,1,213.333,256Zm95.542-130.49c-2.667,38.375-25.4,67.323-52.875,67.323s-50.208-28.948-52.875-67.323a10.658,10.658,0,0,1,7.4-10.9,149.639,149.639,0,0,1,90.958,0A10.658,10.658,0,0,1,308.875,125.51Zm93.146,160.865A148.524,148.524,0,0,1,358.563,363.5a10.659,10.659,0,0,1-7.333,2.917c-.146,0-.292,0-.417-.01a10.643,10.643,0,0,1-7.5-3.51c-30.729-34.083-38.271-65.229-20.188-83.3,15.021-15.031,49.292-17.313,73.354-4.927A10.679,10.679,0,0,1,402.021,286.375Z" fill="#525865"/>
      <path id="Path_3" data-name="Path 3" d="M256,0C114.833,0,0,114.844,0,256S114.833,512,256,512,512,397.156,512,256,397.167,0,256,0Zm0,448C150.125,448,64,361.865,64,256S150.125,64,256,64s192,86.135,192,192S361.875,448,256,448Z" fill="#525865"/>
    </g>
  </g>
</svg>
